<svg xmlns="http://www.w3.org/2000/svg" width="32" height="32"  viewBox="0 0 32 32"><g transform="matrix(1 0 0 1 0 0)"  ><g style=""   ><g transform="matrix(1.33 0 0 1.33 12.01 13.33)"  ><path style="stroke: none; stroke-width: 1; stroke-dasharray: none; stroke-linecap: butt; stroke-dashoffset: 0; stroke-linejoin: miter; stroke-miterlimit: 4; fill: rgb(218,47,75); fill-rule: nonzero; opacity: 1;"  transform=" translate(-9, -10)" d="M 9.00977 9 L 9.1123 9.00488 C 9.61655 9.05611 10.0098 9.48224 10.0098 10 C 10.0098 10.5178 9.61655 10.9439 9.1123 10.9951 L 9.00977 11 L 9 11 C 8.44772 11 8 10.5523 8 10 C 8 9.44772 8.44772 9 9 9 L 9.00977 9 Z" stroke-linecap="round" /></g><g transform="matrix(1.33 0 0 1.33 20.01 13.33)"  ><path style="stroke: none; stroke-width: 1; stroke-dasharray: none; stroke-linecap: butt; stroke-dashoffset: 0; stroke-linejoin: miter; stroke-miterlimit: 4; fill: rgb(218,47,75); fill-rule: nonzero; opacity: 1;"  transform=" translate(-15, -10)" d="M 15.0098 9 L 15.1123 9.00488 C 15.6165 9.05611 16.0098 9.48224 16.0098 10 C 16.0098 10.5178 15.6165 10.9439 15.1123 10.9951 L 15.0098 11 L 15 11 C 14.4477 11 14 10.5523 14 10 C 14 9.44772 14.4477 9 15 9 L 15.0098 9 Z" stroke-linecap="round" /></g><g transform="matrix(1.33 0 0 1.33 16 16)"  ><path style="stroke: none; stroke-width: 1; stroke-dasharray: none; stroke-linecap: butt; stroke-dashoffset: 0; stroke-linejoin: miter; stroke-miterlimit: 4; fill: rgb(218,47,75); fill-rule: nonzero; opacity: 1;"  transform=" translate(-12, -12)" d="M 18.9912 9.65332 C 18.9055 7.92303 18.181 6.28061 16.9502 5.0498 C 15.7194 3.819 14.077 3.09452 12.3467 3.00879 L 12 3 C 10.1435 3 8.36256 3.73705 7.0498 5.0498 C 5.73705 6.36256 5 8.14348 5 10 L 5 19.5859 L 6.29297 18.293 L 6.36914 18.2246 C 6.76191 17.9043 7.34092 17.9269 7.70703 18.293 L 9.5 20.0859 L 11.293 18.293 L 11.3691 18.2246 C 11.7619 17.9043 12.3409 17.9269 12.707 18.293 L 14.5 20.0859 L 16.293 18.293 L 16.3691 18.2246 C 16.7619 17.9043 17.3409 17.9269 17.707 18.293 L 19 19.5859 L 19 10 L 18.9912 9.65332 Z M 21 22 C 21 22.4044 20.7564 22.769 20.3828 22.9238 C 20.0091 23.0786 19.579 22.993 19.293 22.707 L 17 20.4141 L 15.207 22.207 C 14.8165 22.5976 14.1835 22.5976 13.793 22.207 L 12 20.4141 L 10.207 22.207 C 9.81651 22.5976 9.18349 22.5976 8.79297 22.207 L 7 20.4141 L 4.70703 22.707 C 4.42103 22.993 3.99086 23.0786 3.61719 22.9238 C 3.24359 22.769 3 22.4044 3 22 L 3 10 C 3 7.61305 3.94791 5.32357 5.63574 3.63574 C 7.32357 1.94791 9.61305 1 12 1 C 14.3869 1 16.6764 1.94791 18.3643 3.63574 C 20.0521 5.32357 21 7.61305 21 10 L 21 22 Z" stroke-linecap="round" /></g></g></g></svg>