<svg xmlns="http://www.w3.org/2000/svg" width="24" height="24"  viewBox="0 0 24 24"><g transform="matrix(1 0 0 1 0 0)"  ><g style=""   ><g transform="matrix(1 0 0 1 10.87 13)"  ><path style="stroke: none; stroke-width: 1; stroke-dasharray: none; stroke-linecap: butt; stroke-dashoffset: 0; stroke-linejoin: miter; stroke-miterlimit: 4; fill: rgb(61,214,245); fill-rule: nonzero; opacity: 1;"  transform=" translate(-10.87, -13)" d="M 8.99975 12 C 8.99975 11.2044 9.31612 10.4415 9.87866 9.87891 C 10.4412 9.31635 11.2042 9.00006 11.9998 9 C 12.552 9 12.9998 9.44772 12.9998 10 C 12.9998 10.5523 12.552 11 11.9998 11 C 11.7346 11.0001 11.4802 11.1055 11.2927 11.293 C 11.1053 11.4805 10.9998 11.7348 10.9998 12 C 10.9998 13.0698 10.896 14.5988 10.7341 16.1064 C 10.6752 16.6555 10.1825 17.0529 9.63354 16.9941 C 9.08452 16.9352 8.68706 16.4426 8.74585 15.8936 C 8.90394 14.4213 8.99975 12.9701 8.99975 12 Z" stroke-linecap="round" /></g><g transform="matrix(1 0 0 1 13.5 17.56)"  ><path style="stroke: none; stroke-width: 1; stroke-dasharray: none; stroke-linecap: butt; stroke-dashoffset: 0; stroke-linejoin: miter; stroke-miterlimit: 4; fill: rgb(61,214,245); fill-rule: nonzero; opacity: 1;"  transform=" translate(-13.5, -17.56)" d="M 13 13.12 C 13 12.5677 13.4477 12.12 14 12.12 C 14.5523 12.12 15 12.5677 15 13.12 C 15 14.3065 15.0005 15.9386 14.8721 17.5927 C 14.7449 19.2306 14.486 20.9775 13.9287 22.371 C 13.7236 22.8837 13.1416 23.1335 12.6289 22.9286 C 12.1162 22.7235 11.8664 22.1415 12.0713 21.6288 C 12.5138 20.5225 12.7551 19.0192 12.8779 17.4374 C 12.9995 15.8715 13 14.3135 13 13.12 Z" stroke-linecap="round" /></g><g transform="matrix(1 0 0 1 17.54 19.51)"  ><path style="stroke: none; stroke-width: 1; stroke-dasharray: none; stroke-linecap: butt; stroke-dashoffset: 0; stroke-linejoin: miter; stroke-miterlimit: 4; fill: rgb(61,214,245); fill-rule: nonzero; opacity: 1;"  transform=" translate(-17.54, -19.51)" d="M 18.2705 21.2158 C 18.1622 21.7574 17.6353 22.1093 17.0937 22.001 C 16.5523 21.8926 16.2014 21.3656 16.3095 20.8242 L 18.2705 21.2158 Z M 17.8867 17.0049 C 18.4019 17.055 18.7877 17.4875 18.79 17.9941 L 18.7851 18.0967 C 18.7096 18.8733 18.3898 20.6193 18.2705 21.2158 L 16.3095 20.8242 C 16.4303 20.2205 16.7304 18.5666 16.7949 17.9033 L 16.8095 17.8018 C 16.9094 17.3049 17.3714 16.9548 17.8867 17.0049 Z" stroke-linecap="round" /></g><g transform="matrix(1 0 0 1 11 7)"  ><path style="stroke: none; stroke-width: 1; stroke-dasharray: none; stroke-linecap: butt; stroke-dashoffset: 0; stroke-linejoin: miter; stroke-miterlimit: 4; fill: rgb(61,214,245); fill-rule: nonzero; opacity: 1;"  transform=" translate(-11, -7)" d="M 1 12 C 1 9.69137 1.72634 7.44124 3.07617 5.56836 C 4.4261 3.69544 6.33125 2.29453 8.52148 1.56445 C 10.7117 0.834376 13.0766 0.811618 15.2803 1.5 C 17.3462 2.14541 19.1726 3.38528 20.5342 5.05957 L 20.7998 5.40039 L 20.8574 5.48535 C 21.1187 5.91943 21.0137 6.48925 20.5996 6.7998 C 20.1854 7.11031 19.6091 7.05127 19.2656 6.67871 L 19.2002 6.59961 L 18.9824 6.32129 C 17.8684 4.95143 16.3739 3.93721 14.6836 3.40918 C 12.8807 2.84599 10.9462 2.86467 9.1543 3.46191 C 7.36244 4.0592 5.80369 5.20511 4.69922 6.7373 C 3.59473 8.26969 3 10.1111 3 12 C 3 12.5523 2.55228 13 2 13 C 1.44772 13 1 12.5523 1 12 Z" stroke-linecap="round" /></g><g transform="matrix(1 0 0 1 2 16)"  ><path style="stroke: none; stroke-width: 1; stroke-dasharray: none; stroke-linecap: butt; stroke-dashoffset: 0; stroke-linejoin: miter; stroke-miterlimit: 4; fill: rgb(61,214,245); fill-rule: nonzero; opacity: 1;"  transform=" translate(-2, -16)" d="M 2.00977 15 L 2.1123 15.0049 C 2.61655 15.0561 3.00977 15.4822 3.00977 16 C 3.00977 16.5178 2.61655 16.9439 2.1123 16.9951 L 2.00977 17 L 2 17 C 1.44772 17 1 16.5523 1 16 C 1 15.4477 1.44772 15 2 15 L 2.00977 15 Z" stroke-linecap="round" /></g><g transform="matrix(1 0 0 1 21.86 13)"  ><path style="stroke: none; stroke-width: 1; stroke-dasharray: none; stroke-linecap: butt; stroke-dashoffset: 0; stroke-linejoin: miter; stroke-miterlimit: 4; fill: rgb(61,214,245); fill-rule: nonzero; opacity: 1;"  transform=" translate(-21.86, -13)" d="M 21.6008 9.01953 C 22.1083 8.91662 22.6047 9.21803 22.7551 9.70215 L 22.7805 9.80078 L 22.8137 10.0137 C 22.8444 10.2514 22.8661 10.5587 22.882 10.8789 C 22.9046 11.3325 22.9196 11.8898 22.924 12.4854 C 22.9327 13.6694 22.9002 15.0483 22.7951 16.0996 C 22.7401 16.6491 22.2499 17.0501 21.7004 16.9951 C 21.1509 16.9401 20.7499 16.4499 20.8049 15.9004 C 20.8997 14.952 20.9325 13.6542 20.924 12.5 C 20.9198 11.9263 20.9059 11.398 20.885 10.9785 C 20.8738 10.7556 20.8612 10.5798 20.8498 10.4502 L 20.8195 10.1992 L 20.8049 10.0977 C 20.7548 9.59335 21.0935 9.1226 21.6008 9.01953 Z" stroke-linecap="round" /></g><g transform="matrix(1 0 0 1 5.67 14.75)"  ><path style="stroke: none; stroke-width: 1; stroke-dasharray: none; stroke-linecap: butt; stroke-dashoffset: 0; stroke-linejoin: miter; stroke-miterlimit: 4; fill: rgb(61,214,245); fill-rule: nonzero; opacity: 1;"  transform=" translate(-5.67, -14.75)" d="M 5.43553 9.57324 C 5.65123 9.11467 6.1835 8.88484 6.67186 9.05664 C 7.16018 9.22843 7.43133 9.74082 7.31249 10.2334 L 7.28319 10.332 C 7.09493 10.8673 6.9992 11.4307 6.99999 11.998 L 6.99999 12 C 6.99999 14.8876 6.55203 17.8022 6.04979 19.4941 L 5.94823 19.8164 C 5.77347 20.3402 5.20743 20.6229 4.68358 20.4482 C 4.15982 20.2735 3.87713 19.7074 4.05174 19.1836 L 4.13768 18.9082 C 4.5692 17.4469 4.99999 14.7369 4.99999 12 C 4.99898 11.2058 5.13293 10.4171 5.39647 9.66797 L 5.43553 9.57324 Z" stroke-linecap="round" /></g><g transform="matrix(1 0 0 1 8.93 21)"  ><path style="stroke: none; stroke-width: 1; stroke-dasharray: none; stroke-linecap: butt; stroke-dashoffset: 0; stroke-linejoin: miter; stroke-miterlimit: 4; fill: rgb(61,214,245); fill-rule: nonzero; opacity: 1;"  transform=" translate(-8.93, -21)" d="M 8.25841 19.7266 C 8.39646 19.2389 8.88425 18.9256 9.39416 19.0156 C 9.93781 19.1118 10.3007 19.6301 10.2047 20.1738 L 10.1481 20.46 C 10.0024 21.1265 9.7717 21.773 9.60314 22.3027 C 9.43574 22.8289 8.87343 23.1202 8.34728 22.9531 C 7.82116 22.7857 7.52977 22.2234 7.69689 21.6973 C 7.92428 20.9826 8.13018 20.42 8.23498 19.8262 L 8.25841 19.7266 Z" stroke-linecap="round" /></g><g transform="matrix(1 0 0 1 13.5 10)"  ><path style="stroke: none; stroke-width: 1; stroke-dasharray: none; stroke-linecap: butt; stroke-dashoffset: 0; stroke-linejoin: miter; stroke-miterlimit: 4; fill: rgb(61,214,245); fill-rule: nonzero; opacity: 1;"  transform=" translate(-13.5, -10)" d="M 17 14.0001 L 17 11.9991 L 16.9893 11.671 C 16.9395 10.9073 16.7148 10.1636 16.3311 9.49811 C 15.8925 8.73766 15.2611 8.10623 14.501 7.66705 C 13.7409 7.22794 12.8788 6.99633 12.001 6.99615 C 11.123 6.99601 10.2603 7.2271 9.50001 7.66608 C 9.02172 7.9422 8.40994 7.77815 8.1338 7.29987 C 7.85781 6.8216 8.02178 6.20976 8.50001 5.93365 C 9.5644 5.31916 10.772 4.99598 12.001 4.99615 C 13.2301 4.99635 14.4377 5.3198 15.502 5.93463 C 16.5662 6.54951 17.4494 7.43439 18.0635 8.49908 C 18.6774 9.56368 19.0007 10.7711 19 12.0001 L 19 14.0001 C 19 14.5523 18.5523 15.0001 18 15.0001 C 17.4477 15.0001 17 14.5523 17 14.0001 Z" stroke-linecap="round" /></g></g></g></svg>