<svg xmlns="http://www.w3.org/2000/svg" width="16" height="16"  viewBox="0 0 16 16"><g transform="matrix(1 0 0 1 0 0)"  ><g style=""   ><g transform="matrix(0.67 0 0 0.67 12 4)"  ><path style="stroke: none; stroke-width: 1; stroke-dasharray: none; stroke-linecap: butt; stroke-dashoffset: 0; stroke-linejoin: miter; stroke-miterlimit: 4; fill: rgb(224,224,230); fill-rule: nonzero; opacity: 1;"  transform=" translate(-18, -6)" d="M 20 9 L 20 4 L 15 4 C 14.4477 4 14 3.55228 14 3 C 14 2.44772 14.4477 2 15 2 L 21 2 L 21.1025 2.00488 C 21.6067 2.05621 22 2.48232 22 3 L 22 9 C 22 9.55228 21.5523 10 21 10 C 20.4477 10 20 9.55228 20 9 Z" stroke-linecap="round" /></g><g transform="matrix(0.67 0 0 0.67 10.33 5.67)"  ><path style="stroke: none; stroke-width: 1; stroke-dasharray: none; stroke-linecap: butt; stroke-dashoffset: 0; stroke-linejoin: miter; stroke-miterlimit: 4; fill: rgb(224,224,230); fill-rule: nonzero; opacity: 1;"  transform=" translate(-15.5, -8.5)" d="M 20.293 2.29302 C 20.6835 1.90249 21.3165 1.90249 21.707 2.29302 C 22.0976 2.68354 22.0976 3.31655 21.707 3.70708 L 10.707 14.7071 C 10.3165 15.0976 9.68349 15.0976 9.29297 14.7071 C 8.90245 14.3166 8.90245 13.6835 9.29297 13.293 L 20.293 2.29302 Z" stroke-linecap="round" /></g><g transform="matrix(0.67 0 0 0.67 7 9)"  ><path style="stroke: none; stroke-width: 1; stroke-dasharray: none; stroke-linecap: butt; stroke-dashoffset: 0; stroke-linejoin: miter; stroke-miterlimit: 4; fill: rgb(224,224,230); fill-rule: nonzero; opacity: 1;"  transform=" translate(-10.5, -13.5)" d="M 2 19 L 2 8 C 2 7.20435 2.3163 6.44152 2.87891 5.87891 C 3.44152 5.3163 4.20435 5 5 5 L 11 5 C 11.5523 5 12 5.44772 12 6 C 12 6.55228 11.5523 7 11 7 L 5 7 C 4.73478 7 4.48051 7.10543 4.29297 7.29297 C 4.10543 7.48051 4 7.73478 4 8 L 4 19 C 4 19.2652 4.10543 19.5195 4.29297 19.707 C 4.48051 19.8946 4.73478 20 5 20 L 16 20 C 16.2652 20 16.5195 19.8946 16.707 19.707 C 16.8946 19.5195 17 19.2652 17 19 L 17 13 C 17 12.4477 17.4477 12 18 12 C 18.5523 12 19 12.4477 19 13 L 19 19 C 19 19.7957 18.6837 20.5585 18.1211 21.1211 C 17.5585 21.6837 16.7957 22 16 22 L 5 22 C 4.20435 22 3.44152 21.6837 2.87891 21.1211 C 2.3163 20.5585 2 19.7956 2 19 Z" stroke-linecap="round" /></g></g></g></svg>