<svg xmlns="http://www.w3.org/2000/svg" width="20" height="20"  viewBox="0 0 20 20"><g transform="matrix(1 0 0 1 0 0)"  ><g style=""   ><g transform="matrix(0.83 0 0 0.83 10 4.17)"  ><path style="stroke: none; stroke-width: 1; stroke-dasharray: none; stroke-linecap: butt; stroke-dashoffset: 0; stroke-linejoin: miter; stroke-miterlimit: 4; fill: rgb(61,214,245); fill-rule: nonzero; opacity: 1;"  transform=" translate(-12, -5)" d="M 19.9971 4.98438 C 19.9936 4.97318 19.9848 4.95153 19.9648 4.91895 C 19.9224 4.84984 19.8358 4.74586 19.6738 4.61816 C 19.3437 4.35796 18.8039 4.07918 18.0479 3.82715 C 16.5461 3.32656 14.4077 3 12 3 C 9.59229 3 7.45391 3.32656 5.95215 3.82715 C 5.19606 4.07918 4.65634 4.35796 4.32617 4.61816 C 4.16419 4.74586 4.07758 4.84984 4.03516 4.91895 C 4.01518 4.95153 4.00637 4.97318 4.00293 4.98438 C 3.99978 4.99473 4 4.99927 4 5 C 4 5.00073 3.99978 5.00527 4.00293 5.01562 C 4.00637 5.02682 4.01518 5.04847 4.03516 5.08105 C 4.07758 5.15016 4.16419 5.25414 4.32617 5.38184 C 4.65634 5.64204 5.19606 5.92082 5.95215 6.17285 C 7.45391 6.67344 9.59229 7 12 7 C 14.4077 7 16.5461 6.67344 18.0479 6.17285 C 18.8039 5.92082 19.3437 5.64204 19.6738 5.38184 C 19.8358 5.25414 19.9224 5.15016 19.9648 5.08105 C 19.9848 5.04847 19.9936 5.02682 19.9971 5.01562 C 20.0002 5.00527 20 5.00073 20 5 C 20 4.99927 20.0002 4.99473 19.9971 4.98438 Z M 22 5 C 22 5.85182 21.4814 6.5044 20.9121 6.95312 C 20.3315 7.41069 19.5531 7.77947 18.6807 8.07031 C 16.9251 8.65551 14.5629 9 12 9 C 9.43715 9 7.07494 8.65551 5.31934 8.07031 C 4.4469 7.77947 3.66849 7.41069 3.08789 6.95312 C 2.51859 6.5044 2 5.85182 2 5 C 2 4.14818 2.51859 3.4956 3.08789 3.04688 C 3.66849 2.58931 4.4469 2.22053 5.31934 1.92969 C 7.07494 1.34449 9.43715 1 12 1 C 14.5629 1 16.9251 1.34449 18.6807 1.92969 C 19.5531 2.22053 20.3315 2.58931 20.9121 3.04688 C 21.4814 3.4956 22 4.14818 22 5 Z" stroke-linecap="round" /></g><g transform="matrix(0.83 0 0 0.83 10 11.25)"  ><path style="stroke: none; stroke-width: 1; stroke-dasharray: none; stroke-linecap: butt; stroke-dashoffset: 0; stroke-linejoin: miter; stroke-miterlimit: 4; fill: rgb(61,214,245); fill-rule: nonzero; opacity: 1;"  transform=" translate(-12, -13.5)" d="M 2 19 L 2 5 C 2 4.44772 2.44772 4 3 4 C 3.55228 4 4 4.44772 4 5 L 4 19.002 C 4.00023 19.0034 4.00065 19.0063 4.00195 19.0107 C 4.00494 19.0208 4.01333 19.0417 4.03223 19.0732 C 4.072 19.1396 4.15487 19.2423 4.3125 19.3691 C 4.63361 19.6274 5.1703 19.9122 5.95215 20.1729 C 7.50989 20.6921 9.68623 21 12 21 C 14.3138 21 16.4901 20.6921 18.0479 20.1729 C 18.8297 19.9122 19.3664 19.6274 19.6875 19.3691 C 19.8451 19.2423 19.928 19.1396 19.9678 19.0732 C 19.9867 19.0417 19.9951 19.0208 19.998 19.0107 C 19.9994 19.0063 19.9998 19.0034 20 19.002 L 20 5 C 20 4.44772 20.4477 4 21 4 C 21.5523 4 22 4.44772 22 5 L 22 19 L 21.9941 19.1523 C 21.9381 19.9052 21.4719 20.4999 20.9414 20.9268 C 20.3665 21.3894 19.5861 21.7685 18.6807 22.0703 C 16.8628 22.6763 14.4601 23 12 23 C 9.53987 23 7.13725 22.6763 5.31934 22.0703 C 4.41387 21.7685 3.6335 21.3894 3.05859 20.9268 C 2.52814 20.4999 2.06193 19.9052 2.00586 19.1523 L 2 19 Z" stroke-linecap="round" /></g><g transform="matrix(0.83 0 0 0.83 10 11.25)"  ><path style="stroke: none; stroke-width: 1; stroke-dasharray: none; stroke-linecap: butt; stroke-dashoffset: 0; stroke-linejoin: miter; stroke-miterlimit: 4; fill: rgb(61,214,245); fill-rule: nonzero; opacity: 1;"  transform=" translate(-12, -13.5)" d="M 2 12 C 2 11.4477 2.44772 11 3 11 C 3.51768 11 3.94379 11.3933 3.99512 11.8975 L 4 12 L 4 12.002 C 4.00023 12.0034 4.00065 12.0063 4.00195 12.0107 C 4.00494 12.0208 4.01333 12.0417 4.03223 12.0732 C 4.072 12.1396 4.15487 12.2423 4.3125 12.3691 C 4.63361 12.6274 5.1703 12.9122 5.95215 13.1729 C 7.50989 13.6921 9.68623 14 12 14 C 14.3138 14 16.4901 13.6921 18.0479 13.1729 C 18.8297 12.9122 19.3664 12.6274 19.6875 12.3691 C 19.8451 12.2423 19.928 12.1396 19.9678 12.0732 C 19.9867 12.0417 19.9951 12.0208 19.998 12.0107 C 19.9994 12.0063 19.9998 12.0034 20 12.002 L 20 12 C 20 11.4477 20.4477 11 21 11 C 21.5523 11 22 11.4477 22 12 C 22 12.8252 21.5072 13.4715 20.9414 13.9268 C 20.3665 14.3894 19.5861 14.7685 18.6807 15.0703 C 16.8628 15.6763 14.4601 16 12 16 C 9.53987 16 7.13725 15.6763 5.31934 15.0703 C 4.41387 14.7685 3.6335 14.3894 3.05859 13.9268 C 2.49284 13.4715 2 12.8252 2 12 Z" stroke-linecap="round" /></g></g></g></svg>