<svg xmlns="http://www.w3.org/2000/svg" width="32" height="32"  viewBox="0 0 32 32"><g transform="matrix(1 0 0 1 0 0)"  ><g style=""   ><g transform="matrix(1.33 0 0 1.33 9.33 14.67)"  ><path style="stroke: none; stroke-width: 1; stroke-dasharray: none; stroke-linecap: butt; stroke-dashoffset: 0; stroke-linejoin: miter; stroke-miterlimit: 4; fill: rgb(148,68,228); fill-rule: nonzero; opacity: 1;"  transform=" translate(-7, -11)" d="M 3.29302 4.29298 C 3.65913 3.92686 4.23813 3.90427 4.63091 4.22462 L 4.70708 4.29298 L 10.7071 10.293 C 11.0976 10.6835 11.0976 11.3165 10.7071 11.707 L 4.70708 17.707 C 4.31655 18.0976 3.68354 18.0976 3.29302 17.707 C 2.90249 17.3165 2.90249 16.6835 3.29302 16.293 L 8.58598 11 L 3.29302 5.70704 L 3.22466 5.63087 C 2.90431 5.2381 2.9269 4.65909 3.29302 4.29298 Z" stroke-linecap="round" /></g><g transform="matrix(1.33 0 0 1.33 21.33 25.33)"  ><path style="stroke: none; stroke-width: 1; stroke-dasharray: none; stroke-linecap: butt; stroke-dashoffset: 0; stroke-linejoin: miter; stroke-miterlimit: 4; fill: rgb(148,68,228); fill-rule: nonzero; opacity: 1;"  transform=" translate(-16, -19)" d="M 20 18 C 20.5523 18 21 18.4477 21 19 C 21 19.5523 20.5523 20 20 20 L 12 20 C 11.4477 20 11 19.5523 11 19 C 11 18.4477 11.4477 18 12 18 L 20 18 Z" stroke-linecap="round" /></g></g></g></svg>