<svg xmlns="http://www.w3.org/2000/svg" width="20" height="20"  viewBox="0 0 20 20"><g transform="matrix(1 0 0 1 0 0)"  ><g style=""   ><g transform="matrix(0.83 0 0 0.83 13.64 8.27)"  ><path style="stroke: none; stroke-width: 1; stroke-dasharray: none; stroke-linecap: butt; stroke-dashoffset: 0; stroke-linejoin: miter; stroke-miterlimit: 4; fill: rgb(61,214,245); fill-rule: nonzero; opacity: 1;"  transform=" translate(-16.37, -9.92)" d="M 10.6148 4.08352 C 13.161 3.78012 15.7363 4.31804 17.9479 5.61575 C 20.0211 6.83229 21.6678 8.65341 22.6705 10.8296 L 22.8629 11.27 L 22.8756 11.3032 C 23.0214 11.6961 23.0397 12.1235 22.9303 12.5249 L 22.8756 12.6948 L 22.8629 12.7281 C 22.4612 13.7019 21.9296 14.6174 21.2838 15.4497 L 21.2174 15.5279 C 20.8679 15.8946 20.2905 15.9444 19.8815 15.6275 C 19.4452 15.289 19.3653 14.6605 19.7037 14.2241 L 19.9 13.9615 C 20.3408 13.3521 20.7091 12.6933 20.9986 11.9986 C 20.1856 10.0465 18.7605 8.41092 16.9361 7.34036 C 15.1012 6.26363 12.9638 5.81711 10.8512 6.06887 C 10.3028 6.13414 9.8052 5.74223 9.73985 5.19387 C 9.67479 4.64566 10.0666 4.14886 10.6148 4.08352 Z" stroke-linecap="round" /></g><g transform="matrix(0.83 0 0 0.83 9.62 10.38)"  ><path style="stroke: none; stroke-width: 1; stroke-dasharray: none; stroke-linecap: butt; stroke-dashoffset: 0; stroke-linejoin: miter; stroke-miterlimit: 4; fill: rgb(61,214,245); fill-rule: nonzero; opacity: 1;"  transform=" translate(-11.54, -12.46)" d="M 9.12292 9.22168 C 9.50658 8.82446 10.1397 8.8127 10.537 9.19629 C 10.9342 9.57989 10.9448 10.2131 10.5614 10.6104 C 10.1971 10.9876 9.99532 11.4932 9.99988 12.0176 C 10.0044 12.5419 10.2151 13.0433 10.5858 13.4141 C 10.9566 13.7848 11.458 13.9954 11.9823 14 C 12.5067 14.0046 13.0123 13.8028 13.3895 13.4385 L 14.0839 14.1582 L 14.7792 14.877 C 14.0248 15.6056 13.0135 16.0091 11.9647 16 C 10.9161 15.9908 9.91329 15.5697 9.17175 14.8281 C 8.43022 14.0866 8.00905 13.0838 7.99988 12.0352 C 7.99076 10.9864 8.39435 9.97608 9.12292 9.22168 Z M 13.3895 13.4385 C 13.7868 13.0551 14.42 13.0658 14.8036 13.4629 C 15.1871 13.86 15.176 14.4932 14.7792 14.877 L 13.3895 13.4385 Z" stroke-linecap="round" /></g><g transform="matrix(0.83 0 0 0.83 8.12 10.63)"  ><path style="stroke: none; stroke-width: 1; stroke-dasharray: none; stroke-linecap: butt; stroke-dashoffset: 0; stroke-linejoin: miter; stroke-miterlimit: 4; fill: rgb(61,214,245); fill-rule: nonzero; opacity: 1;"  transform=" translate(-9.74, -12.75)" d="M 5.99755 5.64961 C 6.47229 5.36762 7.08555 5.52354 7.36767 5.99824 C 7.64969 6.47292 7.4936 7.08616 7.01904 7.36836 C 5.21623 8.43981 3.80701 10.064 3.00048 11.9992 C 3.5336 13.2789 4.33268 14.4309 5.34619 15.3771 C 6.36833 16.3314 7.58435 17.0541 8.91064 17.4973 C 10.2369 17.9404 11.6432 18.0927 13.0337 17.9445 C 14.424 17.7963 15.7663 17.3514 16.9692 16.6389 C 17.4444 16.3574 18.0579 16.5143 18.3393 16.9894 C 18.6208 17.4646 18.4639 18.0781 17.9888 18.3596 C 16.5389 19.2184 14.9212 19.7552 13.2456 19.9338 C 11.57 20.1124 9.87514 19.9287 8.27685 19.3947 C 6.67861 18.8607 5.21369 17.989 3.98193 16.8391 C 2.8272 15.761 1.90262 14.4615 1.2622 13.0197 L 1.1372 12.7297 L 1.12451 12.6955 C 0.957981 12.2466 0.957876 11.7528 1.12451 11.3039 L 1.1372 11.2707 L 1.32763 10.8342 C 2.3215 8.67637 3.94892 6.86716 5.99755 5.64961 Z" stroke-linecap="round" /></g><g transform="matrix(0.83 0 0 0.83 10 10)"  ><path style="stroke: none; stroke-width: 1; stroke-dasharray: none; stroke-linecap: butt; stroke-dashoffset: 0; stroke-linejoin: miter; stroke-miterlimit: 4; fill: rgb(61,214,245); fill-rule: nonzero; opacity: 1;"  transform=" translate(-12, -12)" d="M 1.29298 1.29298 C 1.65909 0.926863 2.2381 0.904269 2.63087 1.22462 L 2.70704 1.29298 L 22.707 21.293 L 22.7754 21.3692 C 23.0958 21.7619 23.0732 22.3409 22.707 22.707 C 22.3409 23.0732 21.7619 23.0958 21.3692 22.7754 L 21.293 22.707 L 1.29298 2.70704 L 1.22462 2.63087 C 0.904269 2.2381 0.926863 1.65909 1.29298 1.29298 Z" stroke-linecap="round" /></g></g></g></svg>