<svg xmlns="http://www.w3.org/2000/svg" width="20" height="20"  viewBox="0 0 20 20"><g transform="matrix(1 0 0 1 0 0)"  ><g style=""   ><g transform="matrix(0.83 0 0 0.83 15.83 15.83)"  ><path style="stroke: none; stroke-width: 1; stroke-dasharray: none; stroke-linecap: butt; stroke-dashoffset: 0; stroke-linejoin: miter; stroke-miterlimit: 4; fill: rgb(61,214,245); fill-rule: nonzero; opacity: 1;"  transform=" translate(-19, -19)" d="M 17 17 L 17 21 L 21 21 L 21 17 L 17 17 Z M 23 21 C 23 22.1046 22.1046 23 21 23 L 17 23 C 15.8954 23 15 22.1046 15 21 L 15 17 C 15 15.8954 15.8954 15 17 15 L 21 15 C 22.1046 15 23 15.8954 23 17 L 23 21 Z" stroke-linecap="round" /></g><g transform="matrix(0.83 0 0 0.83 4.17 15.83)"  ><path style="stroke: none; stroke-width: 1; stroke-dasharray: none; stroke-linecap: butt; stroke-dashoffset: 0; stroke-linejoin: miter; stroke-miterlimit: 4; fill: rgb(61,214,245); fill-rule: nonzero; opacity: 1;"  transform=" translate(-5, -19)" d="M 3 17 L 3 21 L 7 21 L 7 17 L 3 17 Z M 9 21 C 9 22.1046 8.10457 23 7 23 L 3 23 C 1.89543 23 1 22.1046 1 21 L 1 17 C 1 15.8954 1.89543 15 3 15 L 7 15 C 8.10457 15 9 15.8954 9 17 L 9 21 Z" stroke-linecap="round" /></g><g transform="matrix(0.83 0 0 0.83 10 4.17)"  ><path style="stroke: none; stroke-width: 1; stroke-dasharray: none; stroke-linecap: butt; stroke-dashoffset: 0; stroke-linejoin: miter; stroke-miterlimit: 4; fill: rgb(61,214,245); fill-rule: nonzero; opacity: 1;"  transform=" translate(-12, -5)" d="M 10 3 L 10 7 L 14 7 L 14 3 L 10 3 Z M 16 7 C 16 8.10457 15.1046 9 14 9 L 10 9 C 8.89543 9 8 8.10457 8 7 L 8 3 C 8 1.89543 8.89543 1 10 1 L 14 1 C 15.1046 1 16 1.89543 16 3 L 16 7 Z" stroke-linecap="round" /></g><g transform="matrix(0.83 0 0 0.83 10 11.67)"  ><path style="stroke: none; stroke-width: 1; stroke-dasharray: none; stroke-linecap: butt; stroke-dashoffset: 0; stroke-linejoin: miter; stroke-miterlimit: 4; fill: rgb(61,214,245); fill-rule: nonzero; opacity: 1;"  transform=" translate(-12, -14)" d="M 18 16 L 18 13 L 6 13 L 6 16 C 6 16.5523 5.55228 17 5 17 C 4.44772 17 4 16.5523 4 16 L 4 13 C 4 12.4696 4.21087 11.961 4.58594 11.5859 C 4.96101 11.2109 5.46957 11 6 11 L 18 11 C 18.5304 11 19.039 11.2109 19.4141 11.5859 C 19.7891 11.961 20 12.4696 20 13 L 20 16 C 20 16.5523 19.5523 17 19 17 C 18.4477 17 18 16.5523 18 16 Z" stroke-linecap="round" /></g><g transform="matrix(0.83 0 0 0.83 10 8.33)"  ><path style="stroke: none; stroke-width: 1; stroke-dasharray: none; stroke-linecap: butt; stroke-dashoffset: 0; stroke-linejoin: miter; stroke-miterlimit: 4; fill: rgb(61,214,245); fill-rule: nonzero; opacity: 1;"  transform=" translate(-12, -10)" d="M 11 12 L 11 8 C 11 7.44772 11.4477 7 12 7 C 12.5523 7 13 7.44772 13 8 L 13 12 C 13 12.5523 12.5523 13 12 13 C 11.4477 13 11 12.5523 11 12 Z" stroke-linecap="round" /></g></g></g></svg>