<svg xmlns="http://www.w3.org/2000/svg" width="48" height="48"  viewBox="0 0 48 48"><g transform="matrix(1 0 0 1 0 0)"  ><g style=""   ><g transform="matrix(2 0 0 2 27.62 35.62)"  ><path style="stroke: none; stroke-width: 1; stroke-dasharray: none; stroke-linecap: butt; stroke-dashoffset: 0; stroke-linejoin: miter; stroke-miterlimit: 4; fill: rgb(61,214,245); fill-rule: nonzero; opacity: 1;"  transform=" translate(-13.81, -17.81)" d="M 10.293 16.293 C 10.6591 15.9268 11.2381 15.9043 11.6309 16.2246 L 11.707 16.293 L 13.707 18.293 L 13.7891 18.3672 C 13.8741 18.4369 13.9694 18.4939 14.0713 18.5361 C 14.2072 18.5924 14.3529 18.6211 14.5 18.6211 C 14.6471 18.6211 14.7928 18.5924 14.9287 18.5361 C 15.0648 18.4798 15.1889 18.3971 15.293 18.293 C 15.3971 18.1888 15.4798 18.0647 15.5361 17.9287 C 15.5783 17.8269 15.6054 17.7196 15.6162 17.6103 L 15.6211 17.5 C 15.6211 17.3529 15.5924 17.2072 15.5361 17.0713 C 15.4939 16.9694 15.4369 16.874 15.3672 16.7891 L 15.293 16.707 L 15.2246 16.6309 C 14.9043 16.2381 14.9269 15.6591 15.293 15.293 C 15.6591 14.9268 16.2381 14.9043 16.6309 15.2246 L 16.707 15.293 L 16.8125 15.4043 C 17.0529 15.6695 17.2465 15.9743 17.3838 16.3057 C 17.5406 16.6843 17.6211 17.0901 17.6211 17.5 L 17.6172 17.6533 C 17.5996 18.0108 17.521 18.363 17.3838 18.6943 C 17.2269 19.073 16.9969 19.4172 16.707 19.707 C 16.4172 19.9969 16.073 20.2269 15.6943 20.3838 C 15.3157 20.5406 14.9099 20.6211 14.5 20.6211 C 14.0902 20.6211 13.6843 20.5406 13.3057 20.3838 C 12.9743 20.2465 12.6695 20.0529 12.4043 19.8125 L 12.293 19.707 L 10.293 17.707 L 10.2246 17.6309 C 9.90427 17.2381 9.92686 16.6591 10.293 16.293 Z" stroke-linecap="round" /></g><g transform="matrix(2 0 0 2 27.88 20.12)"  ><path style="stroke: none; stroke-width: 1; stroke-dasharray: none; stroke-linecap: butt; stroke-dashoffset: 0; stroke-linejoin: miter; stroke-miterlimit: 4; fill: rgb(61,214,245); fill-rule: nonzero; opacity: 1;"  transform=" translate(-13.94, -10.06)" d="M 13.2927 13.2925 C 13.6831 12.9022 14.3163 12.9023 14.7068 13.2925 L 17.2068 15.7925 L 17.2898 15.8677 C 17.4892 16.0309 17.7398 16.1215 17.9998 16.1216 L 18.1111 16.1157 C 18.3677 16.0902 18.6088 15.9764 18.7927 15.7925 C 18.9767 15.6085 19.0905 15.3675 19.116 15.1108 L 19.1208 15.0005 C 19.1208 14.7402 19.0305 14.4891 18.8669 14.2895 L 18.7927 14.2075 L 14.9128 10.3266 C 14.5379 9.95223 14.0297 9.74266 13.4998 9.74266 C 12.9698 9.74272 12.4616 9.95314 12.0867 10.3276 L 12.0857 10.3266 L 11.2068 11.2075 C 10.6215 11.7926 9.82742 12.1216 8.99976 12.1216 C 8.17207 12.1215 7.37802 11.7927 6.79272 11.2075 C 6.24395 10.6587 5.92084 9.92624 5.88257 9.15476 L 5.87866 9.00047 C 5.87866 8.17264 6.20736 7.37782 6.79272 6.79246 L 9.60425 3.98191 L 9.80835 3.7866 C 10.8485 2.83213 12.1623 2.22354 13.5681 2.05027 C 15.0671 1.86556 16.5851 2.18581 17.8816 2.96043 L 18.3513 3.2407 L 18.3572 3.24363 L 18.4382 3.28855 C 18.605 3.36912 18.7911 3.40118 18.9753 3.3823 L 19.0671 3.36863 L 20.8025 3.02 L 20.9041 3.00437 C 21.4085 2.95516 21.8781 3.29561 21.9802 3.8032 C 22.0889 4.34451 21.7383 4.87107 21.197 4.97996 L 19.4568 5.33055 L 19.4529 5.33152 C 18.7228 5.47523 17.9655 5.34183 17.3279 4.95848 L 16.8582 4.67918 L 16.8572 4.6782 C 15.9424 4.13127 14.871 3.90533 13.8132 4.03562 C 12.7554 4.16598 11.771 4.6453 11.0164 5.39793 L 8.20679 8.2075 C 7.99672 8.41775 7.87866 8.70324 7.87866 9.00047 L 7.88452 9.11082 C 7.91 9.36733 8.02301 9.60851 8.20679 9.79246 C 8.41702 10.0027 8.70245 10.1215 8.99976 10.1216 C 9.29715 10.1216 9.58244 10.0027 9.79272 9.79246 L 10.6726 8.91258 L 10.8171 8.77586 C 11.5506 8.11251 12.5061 7.74271 13.4998 7.74266 C 14.4936 7.74266 15.4498 8.1123 16.1833 8.77586 L 16.3269 8.91258 L 20.2068 12.7925 L 20.3142 12.9048 C 20.8326 13.4773 21.1208 14.2244 21.1208 15.0005 L 21.1179 15.1548 C 21.0797 15.9263 20.7556 16.6587 20.2068 17.2075 C 19.6581 17.756 18.9262 18.0793 18.155 18.1177 L 17.9998 18.1216 C 17.2238 18.1215 16.4775 17.8323 15.905 17.3139 L 15.7927 17.2075 L 13.2927 14.7075 C 12.9022 14.317 12.9022 13.683 13.2927 13.2925 Z" stroke-linecap="round" /></g><g transform="matrix(2 0 0 2 42 17)"  ><path style="stroke: none; stroke-width: 1; stroke-dasharray: none; stroke-linecap: butt; stroke-dashoffset: 0; stroke-linejoin: miter; stroke-miterlimit: 4; fill: rgb(61,214,245); fill-rule: nonzero; opacity: 1;"  transform=" translate(-21, -8.5)" d="M 20.9092 2.00391 C 21.425 1.95702 21.885 2.31081 21.9814 2.8086 L 21.9961 2.90918 L 22.9961 13.9092 C 23.0215 14.189 22.9277 14.4673 22.7383 14.6748 C 22.5488 14.8821 22.2808 15 22 15 L 20 15 C 19.4477 15 19 14.5523 19 14 C 19 13.4477 19.4477 13 20 13 L 20.9043 13 L 20.0039 3.09082 L 20 2.98828 C 20.0053 2.48153 20.3937 2.05091 20.9092 2.00391 Z" stroke-linecap="round" /></g><g transform="matrix(2 0 0 2 14.12 24.12)"  ><path style="stroke: none; stroke-width: 1; stroke-dasharray: none; stroke-linecap: butt; stroke-dashoffset: 0; stroke-linejoin: miter; stroke-miterlimit: 4; fill: rgb(61,214,245); fill-rule: nonzero; opacity: 1;"  transform=" translate(-7.06, -12.06)" d="M 3.09083 2.00391 C 3.64072 2.05404 4.0461 2.5409 3.99611 3.09082 L 3.0381 13.624 L 9.20705 19.793 C 9.41733 20.0033 9.70262 20.1211 10 20.1211 C 10.2974 20.1211 10.5827 20.0033 10.793 19.793 C 11.0033 19.5827 11.1211 19.2974 11.1211 19 C 11.1211 18.7397 11.0308 18.4886 10.8672 18.2891 L 10.793 18.207 L 10.7246 18.1309 C 10.4043 17.7381 10.4269 17.1591 10.793 16.793 C 11.1591 16.4269 11.7381 16.4043 12.1309 16.7246 L 12.207 16.793 L 12.3135 16.9053 C 12.832 17.4779 13.1211 18.2239 13.1211 19 C 13.1211 19.8278 12.7924 20.6217 12.207 21.207 C 11.6217 21.7924 10.8278 22.1211 10 22.1211 C 9.17219 22.1211 8.37834 21.7924 7.79298 21.207 L 1.29298 14.707 C 1.08313 14.4972 0.977051 14.2047 1.00392 13.9092 L 2.00392 2.90918 C 2.05405 2.3593 2.54091 1.95392 3.09083 2.00391 Z" stroke-linecap="round" /></g><g transform="matrix(2 0 0 2 14 8)"  ><path style="stroke: none; stroke-width: 1; stroke-dasharray: none; stroke-linecap: butt; stroke-dashoffset: 0; stroke-linejoin: miter; stroke-miterlimit: 4; fill: rgb(61,214,245); fill-rule: nonzero; opacity: 1;"  transform=" translate(-7, -4)" d="M 11 3 C 11.5523 3 12 3.44772 12 4 C 12 4.55228 11.5523 5 11 5 L 3 5 C 2.44772 5 2 4.55228 2 4 C 2 3.44772 2.44772 3 3 3 L 11 3 Z" stroke-linecap="round" /></g></g></g></svg>