<svg xmlns="http://www.w3.org/2000/svg" width="24" height="24"  viewBox="0 0 24 24"><g transform="matrix(1 0 0 1 0 0)"  ><g style=""   ><g transform="matrix(1 0 0 1 12 12.5)"  ><path style="stroke: none; stroke-width: 1; stroke-dasharray: none; stroke-linecap: butt; stroke-dashoffset: 0; stroke-linejoin: miter; stroke-miterlimit: 4; fill: rgb(224,224,230); fill-rule: nonzero; opacity: 1;"  transform=" translate(-12, -12.5)" d="M 13.5752 3.58785 C 15.2923 2.69324 17.5324 2.74899 19.3115 4.15133 C 19.3985 4.13033 19.4992 4.10363 19.6123 4.06539 C 19.8904 3.9714 20.1894 3.84084 20.4727 3.70211 C 20.7535 3.56459 21.0049 3.42587 21.1865 3.32125 C 21.2769 3.26919 21.349 3.22562 21.3975 3.19625 C 21.4217 3.18158 21.4405 3.17025 21.4522 3.16305 C 21.4577 3.15961 21.4615 3.15671 21.4639 3.15524 L 21.4658 3.15524 L 21.4668 3.15426 L 21.4658 3.15426 C 21.8232 2.92856 22.2845 2.95217 22.6172 3.21285 C 22.908 3.4409 23.0457 3.8075 22.9863 4.16403 L 22.9483 4.31637 L 22.9483 4.31832 L 22.9473 4.32028 C 22.9466 4.32223 22.9454 4.32513 22.9443 4.32809 C 22.9423 4.33397 22.9399 4.34187 22.9365 4.35153 C 22.9297 4.37112 22.9205 4.39847 22.9082 4.43258 C 22.8835 4.50106 22.8468 4.59812 22.7998 4.71676 C 22.7062 4.95344 22.5673 5.28148 22.3848 5.65328 C 22.0839 6.26615 21.6401 7.04085 21.0547 7.72555 C 22.3445 18.1499 11.0183 25.6897 1.88771 20.1132 L 1.44728 19.8339 C 1.07254 19.5856 0.910374 19.1168 1.04982 18.6894 C 1.18937 18.2624 1.59619 17.9808 2.04494 18.0009 C 3.40575 18.0628 4.75243 17.7802 5.91212 17.2002 C 1.55099 14.7939 -0.367632 9.10181 2.12111 4.52242 L 2.18654 4.41793 C 2.35225 4.18629 2.61124 4.03431 2.89845 4.00485 C 3.22665 3.97135 3.55058 4.1026 3.76369 4.35446 C 5.53242 6.44456 8.16475 7.75816 10.8916 7.97262 C 10.9026 5.97977 12.0241 4.39605 13.5752 3.58785 Z M 18.3174 5.93063 C 17.1474 4.83889 15.6363 4.77035 14.5 5.36227 C 13.3853 5.94302 12.6281 7.15838 12.9776 8.79 C 13.0397 9.0802 12.9702 9.38361 12.7871 9.61715 C 12.6039 9.85072 12.326 9.99124 12.0293 9.99996 C 8.85378 10.0933 5.68513 8.90712 3.334 6.77828 C 2.17413 10.5587 4.34448 14.859 8.28712 16.042 C 8.63564 16.1465 8.90039 16.4325 8.97755 16.788 C 9.04502 17.0992 8.95977 17.4211 8.75392 17.6572 L 8.65822 17.7529 C 7.727 18.5676 6.62472 19.1646 5.44435 19.54 C 12.655 21.7442 20.3027 15.6202 19.0127 7.55758 C 18.9622 7.24115 19.0665 6.91997 19.293 6.69332 C 19.4748 6.51154 19.6439 6.30513 19.8027 6.08883 C 19.5438 6.15261 19.2703 6.20016 19 6.20016 C 18.7467 6.20016 18.5026 6.10345 18.3174 5.93063 Z" stroke-linecap="round" /></g></g></g></svg>