<svg xmlns="http://www.w3.org/2000/svg" width="16" height="16"  viewBox="0 0 16 16"><g transform="matrix(1 0 0 1 0 0)"  ><g style=""   ><g transform="matrix(0.67 0 0 0.67 8 8)"  ><path style="stroke: none; stroke-width: 1; stroke-dasharray: none; stroke-linecap: butt; stroke-dashoffset: 0; stroke-linejoin: miter; stroke-miterlimit: 4; fill: rgb(249,249,251); fill-rule: nonzero; opacity: 1;"  transform=" translate(-12, -12)" d="M 12 2 C 13.9778 2 15.9112 2.58673 17.5557 3.68555 C 19.2001 4.78434 20.4824 6.34567 21.2393 8.17285 C 21.9961 10.0001 22.1935 12.0114 21.8076 13.9512 C 21.4217 15.8909 20.4697 17.6728 19.0713 19.0713 C 17.6728 20.4697 15.8909 21.4217 13.9512 21.8076 C 12.0114 22.1935 10.0001 21.9961 8.17285 21.2393 C 6.34567 20.4824 4.78434 19.2001 3.68555 17.5557 C 2.58673 15.9112 2 13.9778 2 12 C 2 11.4477 2.44772 11 3 11 C 3.55228 11 4 11.4477 4 12 C 4 13.5823 4.46958 15.1287 5.34863 16.4443 C 6.22764 17.7599 7.47676 18.7851 8.93848 19.3906 C 10.4002 19.9961 12.0088 20.1553 13.5605 19.8467 C 15.1124 19.538 16.5384 18.776 17.6572 17.6572 C 18.776 16.5384 19.538 15.1124 19.8467 13.5605 C 20.1553 12.0088 19.9961 10.4002 19.3906 8.93848 C 18.7851 7.47676 17.7599 6.22764 16.4443 5.34863 C 15.1293 4.46994 13.5835 4.00039 12.002 4 C 9.74462 4.00896 7.57808 4.88999 5.95508 6.45898 L 3.70703 8.70703 C 3.31651 9.09756 2.68349 9.09756 2.29297 8.70703 C 1.90244 8.31651 1.90244 7.68349 2.29297 7.29297 L 4.55273 5.0332 L 4.94629 4.66992 C 6.89242 2.96203 9.39524 2.00982 11.9961 2 L 12 2 Z" stroke-linecap="round" /></g><g transform="matrix(0.67 0 0 0.67 3.67 3.67)"  ><path style="stroke: none; stroke-width: 1; stroke-dasharray: none; stroke-linecap: butt; stroke-dashoffset: 0; stroke-linejoin: miter; stroke-miterlimit: 4; fill: rgb(249,249,251); fill-rule: nonzero; opacity: 1;"  transform=" translate(-5.5, -5.5)" d="M 2 3 C 2 2.44772 2.44772 2 3 2 C 3.55228 2 4 2.44772 4 3 L 4 7 L 8 7 C 8.55228 7 9 7.44772 9 8 C 9 8.55228 8.55228 9 8 9 L 3 9 C 2.44772 9 2 8.55228 2 8 L 2 3 Z" stroke-linecap="round" /></g><g transform="matrix(0.67 0 0 0.67 9.33 7)"  ><path style="stroke: none; stroke-width: 1; stroke-dasharray: none; stroke-linecap: butt; stroke-dashoffset: 0; stroke-linejoin: miter; stroke-miterlimit: 4; fill: rgb(249,249,251); fill-rule: nonzero; opacity: 1;"  transform=" translate(-14, -10.5)" d="M 11 7 C 11 6.44772 11.4477 6 12 6 C 12.5523 6 13 6.44772 13 7 L 13 11.3818 L 16.4473 13.1055 L 16.5361 13.1562 C 16.9643 13.4276 17.1261 13.9842 16.8945 14.4473 C 16.663 14.9104 16.1204 15.1153 15.6465 14.9355 L 15.5527 14.8945 L 11.5527 12.8945 C 11.214 12.7251 11 12.3788 11 12 L 11 7 Z" stroke-linecap="round" /></g></g></g></svg>