<svg xmlns="http://www.w3.org/2000/svg" width="16" height="16"  viewBox="0 0 16 16"><g transform="matrix(1 0 0 1 0 0)"  ><g style=""   ><g transform="matrix(0.67 0 0 0.67 7.99 8)"  ><path style="stroke: none; stroke-width: 1; stroke-dasharray: none; stroke-linecap: butt; stroke-dashoffset: 0; stroke-linejoin: miter; stroke-miterlimit: 4; fill: rgb(148,68,228); fill-rule: nonzero; opacity: 1;"  transform=" translate(-11.99, -12)" d="M 20.9949 11.9999 C 20.9949 11.4964 20.8685 11.0011 20.6267 10.5594 C 20.3849 10.1177 20.0354 9.74382 19.6111 9.47253 C 19.2566 9.24585 19.0824 8.82151 19.1746 8.41101 C 19.2855 7.91752 19.2694 7.40367 19.1287 6.91785 C 18.9879 6.43206 18.7265 5.98941 18.3689 5.63171 C 18.0112 5.27399 17.5687 5.01184 17.0828 4.87097 C 16.6575 4.74771 16.2108 4.72047 15.7751 4.78992 L 15.5896 4.82605 C 15.2301 4.90688 14.8596 4.78264 14.6208 4.51257 L 14.5271 4.38855 C 14.2559 3.96443 13.8827 3.61473 13.4412 3.37292 C 13.0546 3.16129 12.6265 3.03818 12.1882 3.01062 L 11.9998 3.00476 C 11.4964 3.00479 11.0009 3.13121 10.5593 3.37292 C 10.1176 3.61477 9.74369 3.96431 9.47241 4.38855 C 9.2458 4.74296 8.82136 4.91808 8.41089 4.82605 C 7.91814 4.71561 7.40571 4.7315 6.92065 4.87195 C 6.43548 5.01246 5.99304 5.27297 5.6355 5.62976 C 5.27809 5.98651 5.01625 6.4282 4.87476 6.91296 C 4.73337 7.39766 4.71652 7.91029 4.82593 8.4032 C 4.9173 8.81478 4.74078 9.23926 4.38452 9.46472 C 3.95712 9.73521 3.6051 10.1096 3.36108 10.5526 C 3.11708 10.9958 2.98903 11.494 2.98901 11.9999 L 2.99487 12.1893 C 3.02271 12.6296 3.14758 13.0594 3.36108 13.4471 C 3.60508 13.8902 3.95711 14.2645 4.38452 14.535 C 4.74075 14.7605 4.91726 15.185 4.82593 15.5966 C 4.71646 16.0897 4.73323 16.6029 4.87476 17.0878 C 5.01625 17.5724 5.27819 18.0133 5.6355 18.37 C 5.99304 18.7268 6.43548 18.9883 6.92065 19.1288 C 7.40559 19.2692 7.91826 19.2851 8.41089 19.1747 L 8.56519 19.1522 C 8.92525 19.1287 9.27532 19.3019 9.47339 19.6132 L 9.57983 19.7694 C 9.83898 20.1252 10.1741 20.4201 10.5613 20.6327 C 11.0036 20.8755 11.5 21.0028 12.0046 21.0028 C 12.5094 21.0028 13.0065 20.8756 13.449 20.6327 C 13.8913 20.3898 14.265 20.039 14.5359 19.6132 L 14.6296 19.4891 C 14.8676 19.2188 15.237 19.094 15.5964 19.1737 L 15.782 19.2089 C 16.2172 19.2771 16.6632 19.2488 17.0876 19.1249 C 17.5724 18.9833 18.0141 18.7216 18.3708 18.3641 C 18.7275 18.0067 18.9882 17.5649 19.1287 17.08 C 19.2692 16.5948 19.285 16.0816 19.1746 15.5887 C 19.0825 15.1783 19.2567 14.7538 19.6111 14.5272 C 20.0354 14.2559 20.3849 13.882 20.6267 13.4403 C 20.8684 12.9987 20.9949 12.5033 20.9949 11.9999 Z M 22.9949 11.9999 C 22.9949 12.8392 22.7837 13.6651 22.3806 14.4012 C 22.0852 14.9408 21.6927 15.4182 21.2263 15.8134 C 21.2793 16.4247 21.2213 17.0425 21.0496 17.6356 C 20.8154 18.4442 20.3805 19.1813 19.7859 19.7772 C 19.1914 20.3729 18.4561 20.8089 17.6482 21.0448 C 17.0554 21.2178 16.4374 21.2771 15.8259 21.2255 C 15.4306 21.6943 14.9518 22.0886 14.4109 22.3856 C 13.6735 22.7904 12.8458 23.0028 12.0046 23.0028 C 11.1635 23.0028 10.3357 22.7905 9.59839 22.3856 C 9.05786 22.0888 8.57952 21.6949 8.18433 21.2264 C 7.57358 21.2791 6.9565 21.2213 6.36401 21.0497 C 5.55545 20.8155 4.81927 20.3806 4.22339 19.786 C 3.62758 19.1914 3.19074 18.4563 2.95483 17.6483 C 2.78193 17.0559 2.72169 16.4381 2.77319 15.827 C 2.30288 15.4318 1.90726 14.9525 1.60913 14.411 C 1.25335 13.7647 1.04514 13.049 0.998779 12.3153 L 0.989014 11.9999 C 0.98903 11.1567 1.2025 10.3274 1.60913 9.58875 C 1.90738 9.04703 2.30263 8.56704 2.77319 8.17175 C 2.72188 7.56114 2.78212 6.94431 2.95483 6.35242 C 3.19071 5.54429 3.62749 4.8084 4.22339 4.21375 C 4.81925 3.6192 5.55549 3.18423 6.36401 2.95007 C 6.95708 2.77833 7.57495 2.71939 8.18628 2.77234 C 8.58136 2.30622 9.05913 1.9143 9.59839 1.61902 C 10.3345 1.21596 11.1605 1.00479 11.9998 1.00476 L 12.3142 1.01453 C 13.0445 1.06051 13.7571 1.26641 14.4011 1.61902 C 14.9404 1.91427 15.4182 2.30626 15.8132 2.77234 C 16.4259 2.71894 17.0451 2.7778 17.6394 2.95007 C 18.4492 3.18481 19.1867 3.62049 19.783 4.21667 C 20.3791 4.81285 20.8148 5.55046 21.0496 6.36023 C 21.2218 6.9545 21.2797 7.57382 21.2263 8.1864 C 21.6927 8.58158 22.0852 9.05901 22.3806 9.59851 C 22.7837 10.3347 22.9949 11.1606 22.9949 11.9999 Z" stroke-linecap="round" /></g><g transform="matrix(0.67 0 0 0.67 8 8)"  ><path style="stroke: none; stroke-width: 1; stroke-dasharray: none; stroke-linecap: butt; stroke-dashoffset: 0; stroke-linejoin: miter; stroke-miterlimit: 4; fill: rgb(148,68,228); fill-rule: nonzero; opacity: 1;"  transform=" translate(-12, -12)" d="M 14.3692 9.22462 C 14.7619 8.90427 15.3409 8.92686 15.707 9.29298 C 16.0732 9.65909 16.0958 10.2381 15.7754 10.6309 L 15.707 10.707 L 11.707 14.707 C 11.3409 15.0732 10.7619 15.0958 10.3692 14.7754 L 10.293 14.707 L 8.29298 12.707 L 8.22462 12.6309 C 7.90427 12.2381 7.92686 11.6591 8.29298 11.293 C 8.65909 10.9269 9.2381 10.9043 9.63087 11.2246 L 9.70704 11.293 L 11 12.5859 L 14.293 9.29298 L 14.3692 9.22462 Z" stroke-linecap="round" /></g></g></g></svg>